<svg width="28" height="28" viewBox="0 0 28 28" fill="none" xmlns="http://www.w3.org/2000/svg">
<circle cx="14" cy="14" r="14" fill="white"/>
<path d="M13.93 22.308C12.0087 22.308 10.498 21.582 9.398 20.13C8.31267 18.6633 7.77 16.72 7.77 14.3C7.77 11.88 8.31267 9.944 9.398 8.492C10.498 7.02533 12.0087 6.292 13.93 6.292C15.866 6.292 17.3767 7.02533 18.462 8.492C19.5473 9.944 20.09 11.88 20.09 14.3C20.09 16.72 19.5473 18.6633 18.462 20.13C17.3767 21.582 15.866 22.308 13.93 22.308ZM11.598 18.062C12.126 18.9127 12.9033 19.338 13.93 19.338C14.9567 19.338 15.734 18.9053 16.262 18.04C16.8047 17.1747 17.076 15.928 17.076 14.3C17.076 12.6573 16.8047 11.4033 16.262 10.538C15.734 9.67267 14.9567 9.24 13.93 9.24C12.9033 9.24 12.126 9.67267 11.598 10.538C11.07 11.4033 10.806 12.6573 10.806 14.3C10.806 15.9427 11.07 17.1967 11.598 18.062Z" fill="#100F17"/>
</svg>
