<svg width="28" height="28" viewBox="0 0 28 28" fill="none" xmlns="http://www.w3.org/2000/svg">
<circle cx="14" cy="14" r="14" fill="white"/>
<path d="M8.594 21V18.734L13.852 13.322C15.0253 12.09 15.612 11.0633 15.612 10.242C15.612 9.64067 15.4213 9.15667 15.04 8.79C14.6733 8.42333 14.1967 8.24 13.61 8.24C12.4513 8.24 11.5933 8.84133 11.036 10.044L8.484 8.548C8.968 7.492 9.66467 6.68533 10.574 6.128C11.4833 5.57067 12.4807 5.292 13.566 5.292C14.9593 5.292 16.1547 5.732 17.152 6.612C18.1493 7.47733 18.648 8.65067 18.648 10.132C18.648 11.7307 17.8047 13.3733 16.118 15.06L13.104 18.074H18.89V21H8.594Z" fill="#100F17"/>
</svg>
