<svg width="28" height="28" viewBox="0 0 28 28" fill="none" xmlns="http://www.w3.org/2000/svg">
<circle cx="14" cy="14" r="14" fill="white"/>
<path d="M15.766 12.848C16.8073 13.156 17.6507 13.6987 18.296 14.476C18.956 15.2387 19.286 16.1627 19.286 17.248C19.286 18.832 18.7507 20.0713 17.68 20.966C16.624 21.8607 15.326 22.308 13.786 22.308C12.5833 22.308 11.5053 22.0367 10.552 21.494C9.61333 20.9367 8.93133 20.1227 8.506 19.052L11.102 17.556C11.4833 18.744 12.378 19.338 13.786 19.338C14.5633 19.338 15.1647 19.1547 15.59 18.788C16.03 18.4067 16.25 17.8933 16.25 17.248C16.25 16.6173 16.03 16.1113 15.59 15.73C15.1647 15.3487 14.5633 15.158 13.786 15.158H13.126L11.96 13.398L14.996 9.438H8.968V6.6H18.648V9.108L15.766 12.848Z" fill="#100F17"/>
</svg>
