<svg width="202" height="703" viewBox="0 0 202 703" fill="none" xmlns="http://www.w3.org/2000/svg">
<path d="M375.48 701.434C399.022 701.528 407.696 696.937 409.673 674.921C404.745 668.169 351.712 637.863 309.706 628.376C275.917 620.744 245.026 645.437 221.117 623.875C197.209 602.313 239.261 626.045 250.904 612.468C264.117 567.147 218.716 606.323 200.949 599.792C127.61 572.837 302.281 459.62 242.631 415.544C202.376 385.799 217.752 544.64 171.389 522.132C125.026 499.625 541.038 -89.9922 207.766 13.8897C195.498 23.8626 210.298 52.7035 210.298 52.7035C210.298 52.7035 283.464 178.47 257.624 261.664C239.599 88.368 148.814 95.9933 131.291 153.112C81.2881 137.763 38.965 122.525 10.5892 160.284C-25.563 208.391 48.0674 215.799 152.195 220.924C311.548 251.273 68.9664 503.664 187.058 622.578C156.407 597.617 142.519 580.722 143.757 527.641C147.916 468.697 162.229 429.773 190.957 358.78C197.258 334.491 202.742 319.451 200.881 301.114C184.772 260.711 179.402 232.385 133.84 237.622C66.8338 260.088 37.1153 274.569 41.2801 314.136C79.307 408.262 116.296 390.337 159.582 298.287C143.73 371.062 134.928 410.084 118.601 492.82C22.3187 491.082 101.096 595.635 169.253 631.675C237.409 667.715 307.843 666.372 372.532 700.357" stroke="white" stroke-opacity="0.2" stroke-width="2"/>
</svg>
