<svg width="119" height="99" viewBox="0 0 119 99" fill="none" xmlns="http://www.w3.org/2000/svg">
<rect width="119" height="99" fill="#100F17"/>
<path d="M43.4305 31.5H45.4305V49H43.1305V34L39.4055 35.1L38.8305 33.1L43.4305 31.5ZM48.7916 49V47.1L54.9666 40.8C56.6166 39.15 57.4416 37.7333 57.4416 36.55C57.4416 35.5667 57.1416 34.8 56.5416 34.25C55.9416 33.7 55.2083 33.425 54.3416 33.425C52.6916 33.425 51.4916 34.2083 50.7416 35.775L48.7916 34.625C49.3416 33.4917 50.0999 32.6333 51.0666 32.05C52.0499 31.4667 53.1333 31.175 54.3166 31.175C55.7833 31.175 57.0583 31.6583 58.1416 32.625C59.2249 33.5917 59.7666 34.8917 59.7666 36.525C59.7666 38.2917 58.7249 40.2167 56.6416 42.3L52.1666 46.75H60.0916V49H48.7916ZM66.6561 38.925C65.5227 38.925 64.5811 38.55 63.8311 37.8C63.0811 37.05 62.7061 36.1333 62.7061 35.05C62.7061 33.9833 63.0811 33.075 63.8311 32.325C64.5977 31.5583 65.5394 31.175 66.6561 31.175C67.7894 31.175 68.7311 31.55 69.4811 32.3C70.2311 33.05 70.6061 33.9667 70.6061 35.05C70.6061 36.1333 70.2311 37.05 69.4811 37.8C68.7477 38.55 67.8061 38.925 66.6561 38.925ZM65.2061 36.525C65.5894 36.9083 66.0727 37.1 66.6561 37.1C67.2394 37.1 67.7144 36.9 68.0811 36.5C68.4644 36.1 68.6561 35.6167 68.6561 35.05C68.6561 34.4833 68.4644 34.0083 68.0811 33.625C67.7144 33.225 67.2394 33.025 66.6561 33.025C66.0727 33.025 65.5894 33.225 65.2061 33.625C64.8394 34.0083 64.6561 34.4833 64.6561 35.05C64.6561 35.6333 64.8394 36.125 65.2061 36.525ZM63.8811 46.525L75.5061 33.525L76.7311 34.2L65.0811 47.225L63.8811 46.525ZM77.0311 48.175C76.2811 48.925 75.3394 49.3 74.2061 49.3C73.0727 49.3 72.1311 48.925 71.3811 48.175C70.6311 47.425 70.2561 46.5083 70.2561 45.425C70.2561 44.3417 70.6311 43.425 71.3811 42.675C72.1311 41.925 73.0727 41.55 74.2061 41.55C75.3394 41.55 76.2811 41.925 77.0311 42.675C77.7811 43.425 78.1561 44.3417 78.1561 45.425C78.1561 46.5083 77.7811 47.425 77.0311 48.175ZM72.7561 46.875C73.1394 47.2583 73.6227 47.45 74.2061 47.45C74.7894 47.45 75.2644 47.2583 75.6311 46.875C76.0144 46.475 76.2061 45.9917 76.2061 45.425C76.2061 44.8583 76.0144 44.3833 75.6311 44C75.2644 43.6 74.7894 43.4 74.2061 43.4C73.6227 43.4 73.1394 43.6 72.7561 44C72.3894 44.3833 72.2061 44.8583 72.2061 45.425C72.2061 45.9917 72.3894 46.475 72.7561 46.875Z" fill="#CB9C68"/>
<rect width="119" height="6" fill="#CB9C68"/>
</svg>
