<svg width="119" height="155" viewBox="0 0 119 155" fill="none" xmlns="http://www.w3.org/2000/svg">
<rect width="119" height="155" fill="#100F17"/>
<path d="M48.5004 43.5V45.675H46.3754V49H44.0504V45.675H35.1254V43.5L41.4004 31.5H43.9004L37.6254 43.5H44.0504V38.55H46.3754V43.5H48.5004ZM62.3773 46.85C61.194 48.5 59.5357 49.325 57.4023 49.325C55.269 49.325 53.6107 48.5 52.4273 46.85C51.244 45.2 50.6523 43 50.6523 40.25C50.6523 37.5 51.244 35.3 52.4273 33.65C53.6107 32 55.269 31.175 57.4023 31.175C59.5357 31.175 61.194 32 62.3773 33.65C63.5607 35.3 64.1523 37.5 64.1523 40.25C64.1523 43 63.5607 45.2 62.3773 46.85ZM54.1273 45.275C54.894 46.4583 55.9857 47.05 57.4023 47.05C58.819 47.05 59.9107 46.4583 60.6773 45.275C61.4607 44.0917 61.8523 42.4167 61.8523 40.25C61.8523 38.0833 61.4607 36.4083 60.6773 35.225C59.9107 34.025 58.819 33.425 57.4023 33.425C55.9857 33.425 54.894 34.0167 54.1273 35.2C53.3607 36.3833 52.9773 38.0667 52.9773 40.25C52.9773 42.4167 53.3607 44.0917 54.1273 45.275ZM70.6111 38.925C69.4778 38.925 68.5361 38.55 67.7861 37.8C67.0361 37.05 66.6611 36.1333 66.6611 35.05C66.6611 33.9833 67.0361 33.075 67.7861 32.325C68.5528 31.5583 69.4945 31.175 70.6111 31.175C71.7445 31.175 72.6861 31.55 73.4361 32.3C74.1861 33.05 74.5611 33.9667 74.5611 35.05C74.5611 36.1333 74.1861 37.05 73.4361 37.8C72.7028 38.55 71.7611 38.925 70.6111 38.925ZM69.1611 36.525C69.5445 36.9083 70.0278 37.1 70.6111 37.1C71.1945 37.1 71.6695 36.9 72.0361 36.5C72.4195 36.1 72.6111 35.6167 72.6111 35.05C72.6111 34.4833 72.4195 34.0083 72.0361 33.625C71.6695 33.225 71.1945 33.025 70.6111 33.025C70.0278 33.025 69.5445 33.225 69.1611 33.625C68.7945 34.0083 68.6111 34.4833 68.6111 35.05C68.6111 35.6333 68.7945 36.125 69.1611 36.525ZM67.8361 46.525L79.4611 33.525L80.6861 34.2L69.0361 47.225L67.8361 46.525ZM80.9861 48.175C80.2361 48.925 79.2945 49.3 78.1611 49.3C77.0278 49.3 76.0861 48.925 75.3361 48.175C74.5861 47.425 74.2111 46.5083 74.2111 45.425C74.2111 44.3417 74.5861 43.425 75.3361 42.675C76.0861 41.925 77.0278 41.55 78.1611 41.55C79.2945 41.55 80.2361 41.925 80.9861 42.675C81.7361 43.425 82.1111 44.3417 82.1111 45.425C82.1111 46.5083 81.7361 47.425 80.9861 48.175ZM76.7111 46.875C77.0945 47.2583 77.5778 47.45 78.1611 47.45C78.7445 47.45 79.2195 47.2583 79.5861 46.875C79.9695 46.475 80.1611 45.9917 80.1611 45.425C80.1611 44.8583 79.9695 44.3833 79.5861 44C79.2195 43.6 78.7445 43.4 78.1611 43.4C77.5778 43.4 77.0945 43.6 76.7111 44C76.3445 44.3833 76.1611 44.8583 76.1611 45.425C76.1611 45.9917 76.3445 46.475 76.7111 46.875Z" fill="#CB9C68"/>
<rect width="119" height="6" fill="#CB9C68"/>
</svg>
