<svg width="119" height="191" viewBox="0 0 119 191" fill="none" xmlns="http://www.w3.org/2000/svg">
<rect width="119" height="191" fill="#100F17"/>
<path d="M49.9037 43.5V45.675H47.7787V49H45.4537V45.675H36.5287V43.5L42.8037 31.5H45.3037L39.0287 43.5H45.4537V38.55H47.7787V43.5H49.9037ZM61.2039 39.95C62.0539 40.3833 62.7206 40.9667 63.2039 41.7C63.6872 42.4333 63.9289 43.2667 63.9289 44.2C63.9289 45.8 63.3706 47.0583 62.2539 47.975C61.1372 48.875 59.6956 49.325 57.9289 49.325C56.1789 49.325 54.7456 48.875 53.6289 47.975C52.5122 47.0583 51.9539 45.8 51.9539 44.2C51.9539 43.2667 52.1956 42.4333 52.6789 41.7C53.1622 40.9667 53.8289 40.3833 54.6789 39.95C53.2456 39.05 52.5289 37.775 52.5289 36.125C52.5289 34.5417 53.0539 33.325 54.1039 32.475C55.1706 31.6083 56.4456 31.175 57.9289 31.175C59.4289 31.175 60.7039 31.6083 61.7539 32.475C62.8206 33.325 63.3539 34.5417 63.3539 36.125C63.3539 37.775 62.6372 39.05 61.2039 39.95ZM57.9289 33.4C57.0456 33.4 56.3039 33.6333 55.7039 34.1C55.1206 34.5667 54.8289 35.2583 54.8289 36.175C54.8289 37.0583 55.1289 37.75 55.7289 38.25C56.3289 38.7333 57.0622 38.975 57.9289 38.975C58.7956 38.975 59.5289 38.7333 60.1289 38.25C60.7289 37.75 61.0289 37.0583 61.0289 36.175C61.0289 35.2583 60.7372 34.5667 60.1539 34.1C59.5706 33.6333 58.8289 33.4 57.9289 33.4ZM57.9289 47.1C59.0456 47.1 59.9372 46.8417 60.6039 46.325C61.2872 45.7917 61.6289 45.0333 61.6289 44.05C61.6289 43.0833 61.2872 42.3417 60.6039 41.825C59.9372 41.2917 59.0456 41.025 57.9289 41.025C56.8289 41.025 55.9372 41.2917 55.2539 41.825C54.5872 42.3417 54.2539 43.0833 54.2539 44.05C54.2539 45.0333 54.5872 45.7917 55.2539 46.325C55.9372 46.8417 56.8289 47.1 57.9289 47.1ZM70.2078 38.925C69.0745 38.925 68.1328 38.55 67.3828 37.8C66.6328 37.05 66.2578 36.1333 66.2578 35.05C66.2578 33.9833 66.6328 33.075 67.3828 32.325C68.1495 31.5583 69.0911 31.175 70.2078 31.175C71.3411 31.175 72.2828 31.55 73.0328 32.3C73.7828 33.05 74.1578 33.9667 74.1578 35.05C74.1578 36.1333 73.7828 37.05 73.0328 37.8C72.2995 38.55 71.3578 38.925 70.2078 38.925ZM68.7578 36.525C69.1411 36.9083 69.6245 37.1 70.2078 37.1C70.7911 37.1 71.2661 36.9 71.6328 36.5C72.0161 36.1 72.2078 35.6167 72.2078 35.05C72.2078 34.4833 72.0161 34.0083 71.6328 33.625C71.2661 33.225 70.7911 33.025 70.2078 33.025C69.6245 33.025 69.1411 33.225 68.7578 33.625C68.3911 34.0083 68.2078 34.4833 68.2078 35.05C68.2078 35.6333 68.3911 36.125 68.7578 36.525ZM67.4328 46.525L79.0578 33.525L80.2828 34.2L68.6328 47.225L67.4328 46.525ZM80.5828 48.175C79.8328 48.925 78.8911 49.3 77.7578 49.3C76.6245 49.3 75.6828 48.925 74.9328 48.175C74.1828 47.425 73.8078 46.5083 73.8078 45.425C73.8078 44.3417 74.1828 43.425 74.9328 42.675C75.6828 41.925 76.6245 41.55 77.7578 41.55C78.8911 41.55 79.8328 41.925 80.5828 42.675C81.3328 43.425 81.7078 44.3417 81.7078 45.425C81.7078 46.5083 81.3328 47.425 80.5828 48.175ZM76.3078 46.875C76.6911 47.2583 77.1745 47.45 77.7578 47.45C78.3411 47.45 78.8161 47.2583 79.1828 46.875C79.5661 46.475 79.7578 45.9917 79.7578 45.425C79.7578 44.8583 79.5661 44.3833 79.1828 44C78.8161 43.6 78.3411 43.4 77.7578 43.4C77.1745 43.4 76.6911 43.6 76.3078 44C75.9411 44.3833 75.7578 44.8583 75.7578 45.425C75.7578 45.9917 75.9411 46.475 76.3078 46.875Z" fill="#CB9C68"/>
<rect width="119" height="6" fill="#CB9C68"/>
</svg>
